<svg xmlns="http://www.w3.org/2000/svg" width="266" height="238" viewBox="-12 -12 266 238" font-family="system-ui, -apple-system, &quot;Segoe UI&quot;, Roboto, Helvetica, Arial, sans-serif">
<defs><marker id="vnm-cls-tri" viewBox="0 0 14 14" refX="13" refY="7" markerWidth="14" markerHeight="14" orient="auto"><path d="M0 0 L14 7 L0 14 z" fill="#ffffff" stroke="#8a93a6" stroke-width="1"/></marker><marker id="vnm-cls-tri-start" viewBox="0 0 14 14" refX="1" refY="7" markerWidth="14" markerHeight="14" orient="auto"><path d="M14 0 L0 7 L14 14 z" fill="#ffffff" stroke="#8a93a6" stroke-width="1"/></marker><marker id="vnm-cls-diamond-solid" viewBox="0 0 20 12" refX="19" refY="6" markerWidth="18" markerHeight="12" orient="auto"><path d="M20 6 L10 0 L0 6 L10 12 z" fill="#8a93a6" stroke="#8a93a6" stroke-width="1"/></marker><marker id="vnm-cls-diamond-solid-start" viewBox="0 0 20 12" refX="1" refY="6" markerWidth="18" markerHeight="12" orient="auto"><path d="M0 6 L10 0 L20 6 L10 12 z" fill="#8a93a6" stroke="#8a93a6" stroke-width="1"/></marker><marker id="vnm-cls-diamond-hollow" viewBox="0 0 20 12" refX="19" refY="6" markerWidth="18" markerHeight="12" orient="auto"><path d="M20 6 L10 0 L0 6 L10 12 z" fill="#ffffff" stroke="#8a93a6" stroke-width="1"/></marker><marker id="vnm-cls-diamond-hollow-start" viewBox="0 0 20 12" refX="1" refY="6" markerWidth="18" markerHeight="12" orient="auto"><path d="M0 6 L10 0 L20 6 L10 12 z" fill="#ffffff" stroke="#8a93a6" stroke-width="1"/></marker><marker id="vnm-cls-open" viewBox="0 0 12 12" refX="10" refY="6" markerWidth="11" markerHeight="11" orient="auto"><path d="M1 1 L11 6 L1 11" fill="none" stroke="#8a93a6" stroke-width="1.4"/></marker><marker id="vnm-cls-open-start" viewBox="0 0 12 12" refX="2" refY="6" markerWidth="11" markerHeight="11" orient="auto"><path d="M11 1 L1 6 L11 11" fill="none" stroke="#8a93a6" stroke-width="1.4"/></marker></defs>
<rect x="-12" y="-12" width="266" height="238" fill="#f7f8fb"/>
<path d="M 106 86 L 106 116 L 54.5 116 L 54.5 146" fill="none" stroke="#8a93a6" stroke-width="1.5" stroke-linejoin="round" stroke-linecap="round" marker-start="url(#vnm-cls-tri-start)"/>
<path d="M 136 86 L 136 116 L 187.5 116 L 187.5 146" fill="none" stroke="#8a93a6" stroke-width="1.5" stroke-linejoin="round" stroke-linecap="round" marker-start="url(#vnm-cls-tri-start)"/>
<g><rect x="52.5" y="8" width="137" height="78" rx="10" fill="#ffffff" stroke="#c7cdd9" stroke-width="1.5"/><text x="121" y="29" fill="#1b2030" font-size="14" font-weight="700" text-anchor="middle" dominant-baseline="central">Animal</text><line x1="52.5" y1="38" x2="189.5" y2="38" stroke="#c7cdd9" stroke-width="1"/><text x="68.5" y="47" fill="#1b2030" font-size="14" text-anchor="start" dominant-baseline="central">+int age</text><line x1="52.5" y1="56" x2="189.5" y2="56" stroke="#c7cdd9" stroke-width="1"/><text x="68.5" y="65" fill="#1b2030" font-size="14" text-anchor="start" dominant-baseline="central">+makeSound()</text></g>
<g><rect x="8" y="146" width="93" height="60" rx="10" fill="#ffffff" stroke="#c7cdd9" stroke-width="1.5"/><text x="54.5" y="167" fill="#1b2030" font-size="14" font-weight="700" text-anchor="middle" dominant-baseline="central">Dog</text><line x1="8" y1="176" x2="101" y2="176" stroke="#c7cdd9" stroke-width="1"/><text x="24" y="185" fill="#1b2030" font-size="14" text-anchor="start" dominant-baseline="central">+bark()</text></g>
<g><rect x="141" y="146" width="93" height="60" rx="10" fill="#ffffff" stroke="#c7cdd9" stroke-width="1.5"/><text x="187.5" y="167" fill="#1b2030" font-size="14" font-weight="700" text-anchor="middle" dominant-baseline="central">Cat</text><line x1="141" y1="176" x2="234" y2="176" stroke="#c7cdd9" stroke-width="1"/><text x="157" y="185" fill="#1b2030" font-size="14" text-anchor="start" dominant-baseline="central">+meow()</text></g>
</svg>