<svg xmlns="http://www.w3.org/2000/svg" width="595" height="660" viewBox="-12 -12 595 660" font-family="system-ui, -apple-system, &quot;Segoe UI&quot;, Roboto, Helvetica, Arial, sans-serif">
<defs><marker id="vnm-arrow" viewBox="0 0 10 10" refX="9" refY="5" markerWidth="8" markerHeight="8" orient="auto"><path d="M0 0 L10 5 L0 10 z" fill="#6b7488"/></marker><marker id="vnm-arrow-start" viewBox="0 0 10 10" refX="1" refY="5" markerWidth="8" markerHeight="8" orient="auto"><path d="M10 0 L0 5 L10 10 z" fill="#6b7488"/></marker></defs>
<rect x="-12" y="-12" width="595" height="660" fill="#0f1117"/>
<path d="M 286.5 50 L 286.5 110" fill="none" stroke="#6b7488" stroke-width="1.5" stroke-linejoin="round" stroke-linecap="round" marker-end="url(#vnm-arrow)"/>
<path d="M 271.5 168.08 L 271.5 200.54 L 187.25 200.54 L 187.25 233" fill="none" stroke="#6b7488" stroke-width="1.5" stroke-linejoin="round" stroke-linecap="round" marker-end="url(#vnm-arrow)"/>
<path d="M 301.5 168.08 L 301.5 203 L 486 203 L 486 437" fill="none" stroke="#6b7488" stroke-width="1.5" stroke-linejoin="round" stroke-linecap="round" marker-end="url(#vnm-arrow)"/>
<path d="M 187.25 275 L 187.25 335" fill="none" stroke="#6b7488" stroke-width="1.5" stroke-linejoin="round" stroke-linecap="round" marker-end="url(#vnm-arrow)"/>
<path d="M 172.25 377 L 172.25 410 L 87 410 L 87 443" fill="none" stroke="#6b7488" stroke-width="1.5" stroke-linejoin="round" stroke-linecap="round" marker-end="url(#vnm-arrow)"/>
<path d="M 202.25 377 L 202.25 410 L 287.5 410 L 287.5 443" fill="none" stroke="#6b7488" stroke-width="1.5" stroke-linejoin="round" stroke-linecap="round" marker-end="url(#vnm-arrow)"/>
<path d="M 87 485 L 87 589.5 L 249 589.5" fill="none" stroke="#6b7488" stroke-width="1.5" stroke-linejoin="round" stroke-linecap="round" marker-end="url(#vnm-arrow)"/>
<path d="M 287.5 485 L 287.5 551" fill="none" stroke="#6b7488" stroke-width="1.5" stroke-linejoin="round" stroke-linecap="round" marker-end="url(#vnm-arrow)"/>
<path d="M 486 491 L 486 589.5 L 326 589.5" fill="none" stroke="#6b7488" stroke-width="1.5" stroke-linejoin="round" stroke-linecap="round" marker-end="url(#vnm-arrow)"/>
<rect x="213.78" y="190.54" width="31.2" height="20" rx="4" fill="#0f1117"/><text x="229.38" y="200.54" fill="#c3cadb" font-size="13" text-anchor="middle" dominant-baseline="central">yes</text>
<rect x="382.35" y="193" width="22.8" height="20" rx="4" fill="#0f1117"/><text x="393.75" y="203" fill="#c3cadb" font-size="13" text-anchor="middle" dominant-baseline="central">no</text>
<rect x="109.83" y="400" width="39.6" height="20" rx="4" fill="#0f1117"/><text x="129.63" y="410" fill="#c3cadb" font-size="13" text-anchor="middle" dominant-baseline="central">prod</text>
<rect x="212.48" y="400" width="64.8" height="20" rx="4" fill="#0f1117"/><text x="244.88" y="410" fill="#c3cadb" font-size="13" text-anchor="middle" dominant-baseline="central">staging</text>
<g><rect x="209.5" y="8" width="154" height="42" rx="21" fill="#1a1f2b" stroke="#3a4152" stroke-width="1.5"/><text x="286.5" y="29" fill="#e7eaf2" font-size="14" font-weight="500" text-anchor="middle" dominant-baseline="central">Push to main</text></g>
<g><polygon points="286.5,110 382.5,141.5 286.5,173 190.5,141.5" fill="#1a1f2b" stroke="#3a4152" stroke-width="1.5"/><text x="286.5" y="141.5" fill="#e7eaf2" font-size="14" font-weight="500" text-anchor="middle" dominant-baseline="central">Lint passes?</text></g>
<g><rect x="131.75" y="233" width="111" height="42" rx="6" fill="#1a1f2b" stroke="#3a4152" stroke-width="1.5"/><text x="187.25" y="254" fill="#e7eaf2" font-size="14" font-weight="500" text-anchor="middle" dominant-baseline="central">Run tests</text></g>
<g><path d="M 409 446.72 C 409 434.08 563 434.08 563 446.72 L 563 481.28 C 563 493.92 409 493.92 409 481.28 Z" fill="#1a1f2b" stroke="#3a4152" stroke-width="1.5"/><path d="M 409 446.72 C 409 459.36 563 459.36 563 446.72" fill="none" stroke="#3a4152" stroke-width="1.5"/><text x="486" y="464" fill="#e7eaf2" font-size="14" font-weight="500" text-anchor="middle" dominant-baseline="central">Report failure</text></g>
<g><polygon points="149.25,335 225.25,335 246.25,356 225.25,377 149.25,377 128.25,356" fill="#1a1f2b" stroke="#3a4152" stroke-width="1.5"/><text x="187.25" y="356" fill="#e7eaf2" font-size="14" font-weight="500" text-anchor="middle" dominant-baseline="central">Deploy?</text></g>
<g><polygon points="42.76,443 166,443 131.24,485 8,485" fill="#1a1f2b" stroke="#3a4152" stroke-width="1.5"/><text x="87" y="464" fill="#e7eaf2" font-size="14" font-weight="500" text-anchor="middle" dominant-baseline="central">Ship to prod</text></g>
<g><rect x="206" y="443" width="163" height="42" rx="6" fill="#1a1f2b" stroke="#3a4152" stroke-width="1.5"/><text x="287.5" y="464" fill="#e7eaf2" font-size="14" font-weight="500" text-anchor="middle" dominant-baseline="central">Ship to staging</text></g>
<g><ellipse cx="287.5" cy="589.5" rx="38.5" ry="38.5" fill="#1a1f2b" stroke="#3a4152" stroke-width="1.5"/><text x="287.5" y="589.5" fill="#e7eaf2" font-size="14" font-weight="500" text-anchor="middle" dominant-baseline="central">Done</text></g>
</svg>