<svg xmlns="http://www.w3.org/2000/svg" width="399.2" height="368" viewBox="4 4 399.2 368" font-family="system-ui, -apple-system, &quot;Segoe UI&quot;, Roboto, Helvetica, Arial, sans-serif">
<defs><marker id="vnm-arrow" viewBox="0 0 10 10" refX="9" refY="5" markerWidth="8" markerHeight="8" orient="auto"><path d="M0 0 L10 5 L0 10 z" fill="#6b7488"/></marker></defs>
<rect x="4" y="4" width="399.2" height="368" fill="#0f1117"/>
<line x1="69" y1="66" x2="69" y2="310" stroke="#6b7488" stroke-width="1" stroke-dasharray="4 4"/>
<line x1="199" y1="66" x2="199" y2="310" stroke="#6b7488" stroke-width="1" stroke-dasharray="4 4"/>
<line x1="333.6" y1="66" x2="333.6" y2="310" stroke="#6b7488" stroke-width="1" stroke-dasharray="4 4"/>
<line x1="69" y1="96" x2="199" y2="96" stroke="#6b7488" stroke-width="1.5" stroke-linecap="round" marker-end="url(#vnm-arrow)"/><rect x="81.26" y="73" width="105.48" height="22" rx="4" fill="#0f1117"/><text x="134" y="84" fill="#c3cadb" font-size="13" text-anchor="middle" dominant-baseline="central">POST /login</text>
<line x1="199" y1="140" x2="333.6" y2="140" stroke="#6b7488" stroke-width="1.5" stroke-linecap="round" marker-end="url(#vnm-arrow)"/><rect x="213.56" y="117" width="105.48" height="22" rx="4" fill="#0f1117"/><text x="266.3" y="128" fill="#c3cadb" font-size="13" text-anchor="middle" dominant-baseline="central">lookup user</text>
<line x1="333.6" y1="184" x2="199" y2="184" stroke="#6b7488" stroke-width="1.5" stroke-linecap="round" stroke-dasharray="6 4" marker-end="url(#vnm-arrow)"/><rect x="213.56" y="161" width="105.48" height="22" rx="4" fill="#0f1117"/><text x="266.3" y="172" fill="#c3cadb" font-size="13" text-anchor="middle" dominant-baseline="central">user record</text>
<path d="M 199 228 L 239 228 L 239 258 L 199 258" fill="none" stroke="#6b7488" stroke-width="1.5" stroke-linejoin="round" marker-end="url(#vnm-arrow)"/><rect x="244.9" y="232" width="140.2" height="22" rx="4" fill="#0f1117"/><text x="315" y="243" fill="#c3cadb" font-size="13" text-anchor="middle" dominant-baseline="central">verify password</text>
<line x1="199" y1="284" x2="69" y2="284" stroke="#6b7488" stroke-width="1.5" stroke-linecap="round" stroke-dasharray="6 4" marker-end="url(#vnm-arrow)"/><rect x="89.94" y="261" width="88.12" height="22" rx="4" fill="#0f1117"/><text x="134" y="272" fill="#c3cadb" font-size="13" text-anchor="middle" dominant-baseline="central">200 + JWT</text>
<g><rect x="24" y="24" width="90" height="42" rx="10" fill="#1a1f2b" stroke="#3a4152" stroke-width="1.5"/><text x="69" y="45" fill="#e7eaf2" font-size="14" font-weight="500" text-anchor="middle" dominant-baseline="central">User</text></g>
<g><rect x="24" y="310" width="90" height="42" rx="10" fill="#1a1f2b" stroke="#3a4152" stroke-width="1.5"/><text x="69" y="331" fill="#e7eaf2" font-size="14" font-weight="500" text-anchor="middle" dominant-baseline="central">User</text></g>
<g><rect x="154" y="24" width="90" height="42" rx="10" fill="#1a1f2b" stroke="#3a4152" stroke-width="1.5"/><text x="199" y="45" fill="#e7eaf2" font-size="14" font-weight="500" text-anchor="middle" dominant-baseline="central">API</text></g>
<g><rect x="154" y="310" width="90" height="42" rx="10" fill="#1a1f2b" stroke="#3a4152" stroke-width="1.5"/><text x="199" y="331" fill="#e7eaf2" font-size="14" font-weight="500" text-anchor="middle" dominant-baseline="central">API</text></g>
<g><rect x="284" y="24" width="99.2" height="42" rx="10" fill="#1a1f2b" stroke="#3a4152" stroke-width="1.5"/><text x="333.6" y="45" fill="#e7eaf2" font-size="14" font-weight="500" text-anchor="middle" dominant-baseline="central">Database</text></g>
<g><rect x="284" y="310" width="99.2" height="42" rx="10" fill="#1a1f2b" stroke="#3a4152" stroke-width="1.5"/><text x="333.6" y="331" fill="#e7eaf2" font-size="14" font-weight="500" text-anchor="middle" dominant-baseline="central">Database</text></g>
</svg>