<svg xmlns="http://www.w3.org/2000/svg" width="399.2" height="368" viewBox="4 4 399.2 368" font-family="system-ui, -apple-system, &quot;Segoe UI&quot;, Roboto, Helvetica, Arial, sans-serif">
<defs><marker id="vnm-arrow" viewBox="0 0 10 10" refX="9" refY="5" markerWidth="8" markerHeight="8" orient="auto"><path d="M0 0 L10 5 L0 10 z" fill="#69728a"/></marker></defs>
<rect x="4" y="4" width="399.2" height="368" fill="#f7f8fb"/>
<line x1="69" y1="66" x2="69" y2="310" stroke="#69728a" stroke-width="1" stroke-dasharray="4 4"/>
<line x1="199" y1="66" x2="199" y2="310" stroke="#69728a" stroke-width="1" stroke-dasharray="4 4"/>
<line x1="333.6" y1="66" x2="333.6" y2="310" stroke="#69728a" stroke-width="1" stroke-dasharray="4 4"/>
<line x1="69" y1="96" x2="199" y2="96" stroke="#69728a" stroke-width="1.5" stroke-linecap="round" marker-end="url(#vnm-arrow)"/><rect x="84.8" y="74" width="98.4" height="20" rx="4" fill="#f7f8fb"/><text x="134" y="84" fill="#3a4152" font-size="13" text-anchor="middle" dominant-baseline="central">POST /login</text>
<line x1="199" y1="140" x2="333.6" y2="140" stroke="#69728a" stroke-width="1.5" stroke-linecap="round" marker-end="url(#vnm-arrow)"/><rect x="217.1" y="118" width="98.4" height="20" rx="4" fill="#f7f8fb"/><text x="266.3" y="128" fill="#3a4152" font-size="13" text-anchor="middle" dominant-baseline="central">lookup user</text>
<line x1="333.6" y1="184" x2="199" y2="184" stroke="#69728a" stroke-width="1.5" stroke-linecap="round" stroke-dasharray="6 4" marker-end="url(#vnm-arrow)"/><rect x="217.1" y="162" width="98.4" height="20" rx="4" fill="#f7f8fb"/><text x="266.3" y="172" fill="#3a4152" font-size="13" text-anchor="middle" dominant-baseline="central">user record</text>
<path d="M 199 228 L 239 228 L 239 258 L 199 258" fill="none" stroke="#69728a" stroke-width="1.5" stroke-linejoin="round" marker-end="url(#vnm-arrow)"/><rect x="249" y="233" width="132" height="20" rx="4" fill="#f7f8fb"/><text x="315" y="243" fill="#3a4152" font-size="13" text-anchor="middle" dominant-baseline="central">verify password</text>
<line x1="199" y1="284" x2="69" y2="284" stroke="#69728a" stroke-width="1.5" stroke-linecap="round" stroke-dasharray="6 4" marker-end="url(#vnm-arrow)"/><rect x="93.2" y="262" width="81.6" height="20" rx="4" fill="#f7f8fb"/><text x="134" y="272" fill="#3a4152" font-size="13" text-anchor="middle" dominant-baseline="central">200 + JWT</text>
<g><rect x="24" y="24" width="90" height="42" rx="10" fill="#ffffff" stroke="#c7cdd9" stroke-width="1.5"/><text x="69" y="45" fill="#1b2030" font-size="14" font-weight="500" text-anchor="middle" dominant-baseline="central">User</text></g>
<g><rect x="24" y="310" width="90" height="42" rx="10" fill="#ffffff" stroke="#c7cdd9" stroke-width="1.5"/><text x="69" y="331" fill="#1b2030" font-size="14" font-weight="500" text-anchor="middle" dominant-baseline="central">User</text></g>
<g><rect x="154" y="24" width="90" height="42" rx="10" fill="#ffffff" stroke="#c7cdd9" stroke-width="1.5"/><text x="199" y="45" fill="#1b2030" font-size="14" font-weight="500" text-anchor="middle" dominant-baseline="central">API</text></g>
<g><rect x="154" y="310" width="90" height="42" rx="10" fill="#ffffff" stroke="#c7cdd9" stroke-width="1.5"/><text x="199" y="331" fill="#1b2030" font-size="14" font-weight="500" text-anchor="middle" dominant-baseline="central">API</text></g>
<g><rect x="284" y="24" width="99.2" height="42" rx="10" fill="#ffffff" stroke="#c7cdd9" stroke-width="1.5"/><text x="333.6" y="45" fill="#1b2030" font-size="14" font-weight="500" text-anchor="middle" dominant-baseline="central">Database</text></g>
<g><rect x="284" y="310" width="99.2" height="42" rx="10" fill="#ffffff" stroke="#c7cdd9" stroke-width="1.5"/><text x="333.6" y="331" fill="#1b2030" font-size="14" font-weight="500" text-anchor="middle" dominant-baseline="central">Database</text></g>
</svg>