<svg xmlns="http://www.w3.org/2000/svg" width="232" height="492" viewBox="-12 9 232 492" font-family="system-ui, -apple-system, &quot;Segoe UI&quot;, Roboto, Helvetica, Arial, sans-serif">
<defs><marker id="vnm-arrow" viewBox="0 0 10 10" refX="9" refY="5" markerWidth="8" markerHeight="8" orient="auto"><path d="M0 0 L10 5 L0 10 z" fill="#8a93a6"/></marker></defs>
<rect x="-12" y="9" width="232" height="492" fill="#f7f8fb"/>
<path d="M 114 51 L 114 132" fill="none" stroke="#8a93a6" stroke-width="1.5" stroke-linejoin="round" stroke-linecap="round" marker-end="url(#vnm-arrow)"/>
<path d="M 114 174 L 114 234" fill="none" stroke="#8a93a6" stroke-width="1.5" stroke-linejoin="round" stroke-linecap="round" marker-end="url(#vnm-arrow)"/><rect x="90" y="194" width="48" height="20" rx="4" fill="#f7f8fb"/><text x="114" y="204" fill="#3a4152" font-size="13" text-anchor="middle" dominant-baseline="central">fetch</text>
<path d="M 84 276 L 84 306 L 46 306 L 46 336" fill="none" stroke="#8a93a6" stroke-width="1.5" stroke-linejoin="round" stroke-linecap="round" marker-end="url(#vnm-arrow)"/><rect x="49.4" y="296" width="31.2" height="20" rx="4" fill="#f7f8fb"/><text x="65" y="306" fill="#3a4152" font-size="13" text-anchor="middle" dominant-baseline="central">2xx</text>
<path d="M 114 276 L 114 306 L 147 306 L 147 336" fill="none" stroke="#8a93a6" stroke-width="1.5" stroke-linejoin="round" stroke-linecap="round" marker-end="url(#vnm-arrow)"/><rect x="98.4" y="286" width="39.6" height="20" rx="4" fill="#f7f8fb"/><text x="118.2" y="296" fill="#3a4152" font-size="13" text-anchor="middle" dominant-baseline="central">fail</text>
<path d="M 177 336 L 177 306 L 144 306 L 144 276" fill="none" stroke="#8a93a6" stroke-width="1.5" stroke-linejoin="round" stroke-linecap="round" marker-end="url(#vnm-arrow)"/><rect x="153" y="306" width="48" height="20" rx="4" fill="#f7f8fb"/><text x="177" y="316" fill="#3a4152" font-size="13" text-anchor="middle" dominant-baseline="central">retry</text>
<path d="M 46 378 L 46 459" fill="none" stroke="#8a93a6" stroke-width="1.5" stroke-linejoin="round" stroke-linecap="round" marker-end="url(#vnm-arrow)"/>
<circle cx="114" cy="40" r="9" fill="#1b2030"/>
<g><rect x="80.5" y="132" width="67" height="42" rx="14" fill="#ffffff" stroke="#c7cdd9" stroke-width="1.5"/><text x="114" y="153" fill="#1b2030" font-size="14" font-weight="500" text-anchor="middle" dominant-baseline="central">Idle</text></g>
<g><rect x="67.5" y="234" width="93" height="42" rx="14" fill="#ffffff" stroke="#c7cdd9" stroke-width="1.5"/><text x="114" y="255" fill="#1b2030" font-size="14" font-weight="500" text-anchor="middle" dominant-baseline="central">Loading</text></g>
<g><rect x="8" y="336" width="76" height="42" rx="14" fill="#ffffff" stroke="#c7cdd9" stroke-width="1.5"/><text x="46" y="357" fill="#1b2030" font-size="14" font-weight="500" text-anchor="middle" dominant-baseline="central">Ready</text></g>
<g><rect x="124" y="336" width="76" height="42" rx="14" fill="#ffffff" stroke="#c7cdd9" stroke-width="1.5"/><text x="162" y="357" fill="#1b2030" font-size="14" font-weight="500" text-anchor="middle" dominant-baseline="central">Error</text></g>
<circle cx="46" cy="470" r="9" fill="none" stroke="#1b2030" stroke-width="1.5"/><circle cx="46" cy="470" r="5" fill="#1b2030"/>
</svg>